<svg width="140" height="30" viewBox="0 0 140 30" fill="none" xmlns="http://www.w3.org/2000/svg">
<path fill-rule="evenodd" clip-rule="evenodd" d="M98.1676 20.7779C97.5295 19.7227 96.9847 17.7205 96.9847 17.7205H95.9218C95.525 17.7205 95.2364 17.6386 95.056 17.4748C94.8937 17.3111 94.8125 17.0472 94.8125 16.6832V12.534H97.3017V7.48395H94.8125V3.77148H88.8059V7.48395H86.9119V12.534H88.8059V16.574C88.8059 20.7779 90.8983 22.8798 95.0831 22.8798H100.44C100.44 22.8798 98.7947 21.8149 98.1676 20.7779ZM76.549 22.17C77.6674 22.6432 78.9481 22.8798 80.3911 22.8798C81.7079 22.8798 82.8533 22.6705 83.8274 22.2519C84.8195 21.8334 85.5771 21.2601 86.1002 20.5322C86.6233 19.8042 86.8848 18.9853 86.8848 18.0754C86.8848 16.9107 86.6052 16.0008 86.046 15.3456C85.4869 14.6723 84.8285 14.1991 84.0709 13.9262C83.3133 13.6532 82.3843 13.4075 81.284 13.1891C80.4543 13.0254 79.85 12.8707 79.4712 12.7251C79.0924 12.5613 78.903 12.3247 78.903 12.0153C78.903 11.7788 78.9842 11.6059 79.1465 11.4967C79.3089 11.3693 79.5434 11.3056 79.85 11.3056C80.337 11.3056 80.7248 11.4239 81.0134 11.6605C81.3021 11.8789 81.4915 12.1973 81.5816 12.6159H86.9119C86.6774 10.978 85.9739 9.64956 84.8014 8.63045C83.647 7.61134 82.0416 7.10179 79.9853 7.10179C78.5964 7.10179 77.4149 7.32927 76.4408 7.78422C75.4668 8.22099 74.7272 8.83063 74.2221 9.61316C73.7351 10.3775 73.4916 11.2328 73.4916 12.1791C73.4916 13.271 73.7532 14.1264 74.2763 14.7451C74.8174 15.3638 75.4397 15.8006 76.1432 16.0554C76.8647 16.3102 77.7756 16.5467 78.8759 16.7651C79.7778 16.9471 80.4182 17.1109 80.797 17.2565C81.1758 17.4021 81.3652 17.6477 81.3652 17.9935C81.3652 18.1937 81.275 18.3666 81.0946 18.5122C80.9142 18.6395 80.6707 18.7032 80.3641 18.7032C79.8771 18.7032 79.4712 18.5941 79.1465 18.3757C78.8399 18.1573 78.6505 17.8206 78.5783 17.3657H72.8152C72.9054 18.4212 73.2752 19.3675 73.9245 20.2046C74.5739 21.0417 75.4487 21.6969 76.549 22.17ZM97.3559 15.1819C97.3559 13.5622 97.6264 12.1609 98.1676 10.978C98.7267 9.77694 99.4843 8.86703 100.44 8.24828C101.396 7.61134 102.47 7.29287 103.66 7.29287C104.652 7.29287 105.509 7.50215 106.231 7.92071C106.952 8.32107 107.502 8.87612 107.881 9.58586V7.48395H113.861H119.867V10.3229C120.481 9.43118 121.229 8.72144 122.113 8.19369C122.997 7.64774 123.917 7.37476 124.873 7.37476V13.8443H123.168C122.032 13.8443 121.193 14.0445 120.652 14.4448C120.129 14.8452 119.867 15.5549 119.867 16.574V22.8798H113.887L115.115 17.3156L118.415 15.2118L115.115 13.108L113.877 7.49783L112.639 13.108L109.339 15.2118L112.639 17.3156L113.867 22.8798H113.861H107.881V20.7779C107.502 21.4876 106.952 22.0517 106.231 22.4703C105.509 22.8707 104.652 23.0708 103.66 23.0708C102.47 23.0708 101.396 22.7615 100.44 22.1427C99.4843 21.5058 98.7267 20.5959 98.1676 19.413C97.6264 18.2119 97.3559 16.8015 97.3559 15.1819ZM107.881 15.1819C107.881 14.3629 107.674 13.726 107.259 13.271C106.844 12.8161 106.312 12.5886 105.662 12.5886C105.013 12.5886 104.481 12.8161 104.066 13.271C103.651 13.726 103.444 14.3629 103.444 15.1819C103.444 16.0008 103.651 16.6377 104.066 17.0927C104.481 17.5476 105.013 17.7751 105.662 17.7751C106.312 17.7751 106.844 17.5476 107.259 17.0927C107.674 16.6377 107.881 16.0008 107.881 15.1819Z" fill="#F0C112"/>
<path d="M22.6078 22.6297C21.1587 22.6297 19.8726 22.3931 18.7495 21.9199C17.6446 21.4468 16.7661 20.7916 16.114 19.9545C15.4619 19.1174 15.0906 18.1711 15 17.1156H20.7873C20.8598 17.5705 21.05 17.9072 21.3579 18.1256C21.684 18.344 22.0915 18.4531 22.5806 18.4531C22.8885 18.4531 23.1331 18.3894 23.3142 18.2621C23.4953 18.1165 23.5859 17.9436 23.5859 17.7434C23.5859 17.3976 23.3957 17.152 23.0153 17.0064C22.6349 16.8608 21.9919 16.697 21.0862 16.515C19.9813 16.2966 19.0665 16.0601 18.342 15.8053C17.6355 15.5505 17.0106 15.1137 16.4672 14.495C15.9419 13.8763 15.6793 13.0209 15.6793 11.929C15.6793 10.9827 15.9238 10.1274 16.4129 9.36306C16.9201 8.58053 17.6627 7.97089 18.6409 7.53412C19.619 7.07916 20.8054 6.85169 22.2002 6.85169C24.2652 6.85169 25.8773 7.36124 27.0366 8.38035C28.2139 9.39946 28.9204 10.7279 29.1559 12.3658H23.8033C23.7127 11.9472 23.5225 11.6288 23.2327 11.4104C22.9429 11.1738 22.5534 11.0555 22.0643 11.0555C21.7564 11.0555 21.5209 11.1192 21.3579 11.2466C21.1949 11.3558 21.1134 11.5287 21.1134 11.7652C21.1134 12.0746 21.3036 12.3112 21.684 12.475C22.0643 12.6206 22.6712 12.7753 23.5044 12.939C24.6093 13.1574 25.5422 13.4031 26.303 13.6761C27.0637 13.949 27.7249 14.4222 28.2864 15.0955C28.8479 15.7507 29.1287 16.6606 29.1287 17.8253C29.1287 18.7352 28.866 19.5541 28.3407 20.2821C27.8154 21.01 27.0547 21.5833 26.0584 22.0018C25.0803 22.4204 23.9301 22.6297 22.6078 22.6297Z" fill="white"/>
<path d="M35.8136 9.33576C36.194 8.62602 36.7374 8.07097 37.4439 7.67061C38.1684 7.25205 39.0288 7.04277 40.0251 7.04277C41.2206 7.04277 42.2983 7.36124 43.2584 7.99818C44.2184 8.61693 44.9701 9.52684 45.5135 10.7279C46.075 11.9108 46.3558 13.3121 46.3558 14.9318C46.3558 16.5514 46.075 17.9618 45.5135 19.1629C44.9701 20.3458 44.2184 21.2557 43.2584 21.8926C42.2983 22.5114 41.2206 22.8207 40.0251 22.8207C39.0288 22.8207 38.1684 22.6206 37.4439 22.2202C36.7374 21.8016 36.194 21.2375 35.8136 20.5278V30H29.7818V7.23385H35.8136V9.33576ZM40.2424 14.9318C40.2424 14.1128 40.0341 13.4759 39.6175 13.0209C39.2009 12.566 38.6665 12.3385 38.0144 12.3385C37.3624 12.3385 36.828 12.566 36.4114 13.0209C35.9948 13.4759 35.7865 14.1128 35.7865 14.9318C35.7865 15.7507 35.9948 16.3876 36.4114 16.8426C36.828 17.2975 37.3624 17.525 38.0144 17.525C38.6665 17.525 39.2009 17.2975 39.6175 16.8426C40.0341 16.3876 40.2424 15.7507 40.2424 14.9318Z" fill="white"/>
<path d="M50.4518 6.00546C49.4012 6.00546 48.559 5.72339 47.925 5.15924C47.291 4.59509 46.974 3.88535 46.974 3.03003C46.974 2.15651 47.291 1.43767 47.925 0.873522C48.559 0.291174 49.4012 0 50.4518 0C51.4843 0 52.3176 0.291174 52.9515 0.873522C53.5855 1.43767 53.9025 2.15651 53.9025 3.03003C53.9025 3.88535 53.5855 4.59509 52.9515 5.15924C52.3176 5.72339 51.4843 6.00546 50.4518 6.00546ZM53.4406 7.23385V22.6297H47.4087V7.23385H53.4406Z" fill="white"/>
<path d="M65.4029 7.12466C67.1599 7.12466 68.5275 7.71611 69.5056 8.899C70.5019 10.0819 71 11.6833 71 13.7034V22.6297H64.9953V14.4677C64.9953 13.7398 64.7961 13.1665 64.3976 12.748C64.0172 12.3112 63.5009 12.0928 62.8488 12.0928C62.1786 12.0928 61.6533 12.3112 61.2729 12.748C60.8926 13.1665 60.7024 13.7398 60.7024 14.4677V22.6297H54.6705V7.23385H60.7024V9.58144C61.1733 8.8535 61.7982 8.26206 62.5771 7.8071C63.3741 7.35214 64.316 7.12466 65.4029 7.12466Z" fill="white"/>
</svg>
